<?xml version="1.0" encoding="UTF-8" standalone="no"?>
<!DOCTYPE svg PUBLIC "-//W3C//DTD SVG 1.1//EN" "http://www.w3.org/Graphics/SVG/1.1/DTD/svg11.dtd">
<svg width="100%" height="100%" viewBox="0 0 450 450" version="1.1" xmlns="http://www.w3.org/2000/svg" xmlns:xlink="http://www.w3.org/1999/xlink" xml:space="preserve" xmlns:serif="http://www.serif.com/" style="fill-rule:evenodd;clip-rule:evenodd;stroke-linejoin:round;stroke-miterlimit:2;">
    <g id="Artboard1" transform="matrix(0.154746,0,0,0.408719,-191.574966,15.940054)">
        <rect x="1238" y="-39" width="2908" height="1101" style="fill:none;"/>
        <g transform="matrix(7.658826,0,0,2.901709,-11078.332887,-539.764652)">
            <g transform="matrix(3.340601,0,0,3.287512,-2448.233049,-6340.467976)">
                <g transform="matrix(3.197937,0,0,3.35062,-2096.207932,-3978.30648)">
                    <path d="M1048.112,1811.641C1055.629,1811.641 1060.239,1806.819 1060.239,1800.003L1060.239,1791.539C1060.239,1789.96 1059.367,1788.996 1057.934,1788.996C1056.48,1788.996 1055.608,1789.96 1055.608,1791.539L1055.608,1799.586C1055.608,1804.101 1052.888,1807.279 1048.112,1807.279C1043.337,1807.279 1040.637,1804.101 1040.637,1799.586L1040.637,1786.004C1040.637,1784.426 1039.745,1783.461 1038.312,1783.461C1036.858,1783.461 1035.986,1784.426 1035.986,1786.004L1035.986,1800.003C1035.986,1806.819 1040.596,1811.641 1048.112,1811.641Z" style="fill:rgb(0,217,255);fill-rule:nonzero;"/>
                </g>
                <g transform="matrix(-3.197937,-0,0,-3.35062,4638.386619,8056.016108)">
                    <path d="M1048.112,1811.641C1055.629,1811.641 1060.239,1806.819 1060.239,1800.003L1060.239,1791.539C1060.239,1789.96 1059.367,1788.996 1057.934,1788.996C1056.48,1788.996 1055.608,1789.96 1055.608,1791.539L1055.608,1799.586C1055.608,1804.101 1052.888,1807.279 1048.112,1807.279C1043.337,1807.279 1040.637,1804.101 1040.637,1799.586L1040.637,1786.004C1040.637,1784.426 1039.745,1783.461 1038.312,1783.461C1036.858,1783.461 1035.986,1784.426 1035.986,1786.004L1035.986,1800.003C1035.986,1806.819 1040.596,1811.641 1048.112,1811.641Z" style="fill:rgb(0,217,255);fill-rule:nonzero;"/>
                </g>
            </g>
        </g>
    </g>
</svg>
