<?xml version="1.0" encoding="UTF-8" standalone="no"?>
<!DOCTYPE svg PUBLIC "-//W3C//DTD SVG 1.1//EN" "http://www.w3.org/Graphics/SVG/1.1/DTD/svg11.dtd">
<svg width="100%" height="100%" viewBox="0 0 2605 424" version="1.1" xmlns="http://www.w3.org/2000/svg" xmlns:xlink="http://www.w3.org/1999/xlink" xml:space="preserve" xmlns:serif="http://www.serif.com/" style="fill-rule:evenodd;clip-rule:evenodd;stroke-linejoin:round;stroke-miterlimit:2;">
    <g id="Artboard1" transform="matrix(0.895805,0,0,0.385104,-1109.00619,15.019074)">
        <rect x="1238" y="-39" width="2908" height="1101" style="fill:none;"/>
        <g transform="matrix(1.323022,0,0,3.079644,-884.703972,-604.228994)">
            <g transform="matrix(6.903823,0,0,6.899075,-5033.543498,-12019.068494)">
                <path d="M1048.922,1811.86C1046.444,1811.86 1044.316,1811.371 1042.537,1810.392C1040.759,1809.413 1039.392,1808.05 1038.436,1806.304C1037.481,1804.558 1037.004,1802.538 1037.004,1800.244L1037.004,1779.488L1040.741,1779.488L1040.741,1799.981C1040.741,1801.603 1041.063,1803.031 1041.707,1804.266C1042.35,1805.501 1043.281,1806.469 1044.5,1807.17C1045.718,1807.871 1047.192,1808.222 1048.922,1808.222C1050.653,1808.222 1052.123,1807.871 1053.335,1807.17C1054.546,1806.469 1055.47,1805.501 1056.107,1804.266C1056.743,1803.031 1057.062,1801.603 1057.062,1799.981L1057.062,1779.488L1060.799,1779.488L1060.799,1800.244C1060.799,1802.538 1060.325,1804.558 1059.377,1806.304C1058.429,1808.05 1057.069,1809.413 1055.297,1810.392C1053.525,1811.371 1051.4,1811.86 1048.922,1811.86Z" style="fill:white;fill-rule:nonzero;"/>
                <path d="M1079.585,1811.115L1079.585,1779.488L1083.218,1779.488L1100.39,1805.482L1097.898,1804.101L1099.809,1804.101L1099.809,1779.488L1103.505,1779.488L1103.505,1811.115L1099.871,1811.115L1082.699,1785.209L1085.191,1786.589L1083.281,1786.589L1083.281,1811.115L1079.585,1811.115Z" style="fill:white;fill-rule:nonzero;"/>
                <rect x="1122.331" y="1779.488" width="3.738" height="31.627" style="fill:white;fill-rule:nonzero;"/>
                <path d="M1146.764,1799.828L1146.764,1796.321L1155.236,1796.321C1157.382,1796.321 1159.043,1795.733 1160.22,1794.556C1161.396,1793.38 1161.984,1791.755 1161.984,1789.68L1161.984,1789.636C1161.984,1787.546 1161.396,1785.917 1160.22,1784.748C1159.043,1783.579 1157.382,1782.995 1155.236,1782.995L1146.764,1782.995L1146.764,1779.488L1156.191,1779.488C1158.074,1779.488 1159.735,1779.912 1161.175,1780.759C1162.614,1781.607 1163.746,1782.79 1164.57,1784.31C1165.393,1785.83 1165.805,1787.59 1165.805,1789.592L1165.805,1789.636C1165.805,1791.638 1165.393,1793.406 1164.57,1794.94C1163.746,1796.474 1162.614,1797.672 1161.175,1798.534C1159.735,1799.396 1158.074,1799.828 1156.191,1799.828L1146.764,1799.828ZM1144.896,1811.115L1144.896,1779.488L1148.633,1779.488L1148.633,1811.115L1144.896,1811.115Z" style="fill:white;fill-rule:nonzero;"/>
                <path d="M1183.095,1811.115L1183.095,1779.488L1186.833,1779.488L1186.833,1807.564L1201.285,1807.564L1201.285,1811.115L1183.095,1811.115Z" style="fill:white;fill-rule:nonzero;"/>
                <path d="M1218.429,1811.115L1218.429,1779.488L1236.992,1779.488L1236.992,1783.039L1222.167,1783.039L1222.167,1793.187L1236.224,1793.187L1236.224,1796.693L1222.167,1796.693L1222.167,1807.564L1236.992,1807.564L1236.992,1811.115L1218.429,1811.115Z" style="fill:white;fill-rule:nonzero;"/>
                <path d="M1252.975,1811.115L1264.083,1793.844L1263.19,1796.891L1263.19,1795.137L1253.099,1779.488L1257.605,1779.488L1265.62,1792.222L1267.322,1792.222L1264.852,1793.625L1273.842,1779.488L1278.099,1779.488L1267.738,1795.334L1267.738,1797.088L1266.845,1794.041L1277.871,1811.115L1273.385,1811.115L1265.412,1798.491L1263.709,1798.491L1266.18,1797.11L1257.21,1811.115L1252.975,1811.115Z" style="fill:white;fill-rule:nonzero;"/>
            </g>
            <g transform="matrix(3.340601,0,0,3.287512,-2448.233049,-6340.467976)">
                <g transform="matrix(3.197937,0,0,3.35062,-2096.207932,-3978.30648)">
                    <path d="M1048.112,1811.641C1055.629,1811.641 1060.239,1806.819 1060.239,1800.003L1060.239,1791.539C1060.239,1789.96 1059.367,1788.996 1057.934,1788.996C1056.48,1788.996 1055.608,1789.96 1055.608,1791.539L1055.608,1799.586C1055.608,1804.101 1052.888,1807.279 1048.112,1807.279C1043.337,1807.279 1040.637,1804.101 1040.637,1799.586L1040.637,1786.004C1040.637,1784.426 1039.745,1783.461 1038.312,1783.461C1036.858,1783.461 1035.986,1784.426 1035.986,1786.004L1035.986,1800.003C1035.986,1806.819 1040.596,1811.641 1048.112,1811.641Z" style="fill:rgb(0,217,255);fill-rule:nonzero;"/>
                </g>
                <g transform="matrix(-3.197937,-0,0,-3.35062,4638.386619,8056.016108)">
                    <path d="M1048.112,1811.641C1055.629,1811.641 1060.239,1806.819 1060.239,1800.003L1060.239,1791.539C1060.239,1789.96 1059.367,1788.996 1057.934,1788.996C1056.48,1788.996 1055.608,1789.96 1055.608,1791.539L1055.608,1799.586C1055.608,1804.101 1052.888,1807.279 1048.112,1807.279C1043.337,1807.279 1040.637,1804.101 1040.637,1799.586L1040.637,1786.004C1040.637,1784.426 1039.745,1783.461 1038.312,1783.461C1036.858,1783.461 1035.986,1784.426 1035.986,1786.004L1035.986,1800.003C1035.986,1806.819 1040.596,1811.641 1048.112,1811.641Z" style="fill:rgb(0,217,255);fill-rule:nonzero;"/>
                </g>
            </g>
        </g>
    </g>
</svg>
