<?xml version="1.0" encoding="UTF-8" standalone="no"?>
<!DOCTYPE svg PUBLIC "-//W3C//DTD SVG 1.1//EN" "http://www.w3.org/Graphics/SVG/1.1/DTD/svg11.dtd">
<svg width="100%" height="100%" viewBox="0 0 2510 743" version="1.1" xmlns="http://www.w3.org/2000/svg" xmlns:xlink="http://www.w3.org/1999/xlink" xml:space="preserve" xmlns:serif="http://www.serif.com/" style="fill-rule:evenodd;clip-rule:evenodd;stroke-linejoin:round;stroke-miterlimit:2;">
    <g id="Artboard1" transform="matrix(0.863136,0,0,0.674841,-1068.562586,26.318801)">
        <rect x="1238" y="-39" width="2908" height="1101" style="fill:none;"/>
        <g transform="matrix(1,0,0,1,-6.372112,29.488425)">
            <g transform="matrix(1.080467,0,0,1.382892,-222.601272,-191.483444)">
                <g transform="matrix(6.903823,0,0,6.899075,-5033.543498,-12019.068494)">
                    <g transform="matrix(42.524618,0,0,44.887096,1033.224725,1811.115055)">
                        <path d="M0.369,0.017C0.311,0.017 0.261,0.006 0.219,-0.016C0.177,-0.038 0.145,-0.068 0.123,-0.107C0.1,-0.146 0.089,-0.191 0.089,-0.242L0.089,-0.705L0.177,-0.705L0.177,-0.248C0.177,-0.212 0.184,-0.18 0.199,-0.153C0.215,-0.125 0.236,-0.104 0.265,-0.088C0.294,-0.072 0.328,-0.064 0.369,-0.064C0.41,-0.064 0.444,-0.072 0.473,-0.088C0.501,-0.104 0.523,-0.125 0.538,-0.153C0.553,-0.18 0.561,-0.212 0.561,-0.248L0.561,-0.705L0.648,-0.705L0.648,-0.242C0.648,-0.191 0.637,-0.146 0.615,-0.107C0.593,-0.068 0.561,-0.038 0.519,-0.016C0.477,0.006 0.427,0.017 0.369,0.017Z" style="fill-rule:nonzero;"/>
                    </g>
                    <g transform="matrix(42.524618,0,0,44.887096,1075.76396,1811.115055)">
                        <path d="M0.09,-0L0.09,-0.705L0.175,-0.705L0.579,-0.125L0.521,-0.156L0.565,-0.156L0.565,-0.705L0.652,-0.705L0.652,-0L0.567,-0L0.163,-0.577L0.222,-0.546L0.177,-0.546L0.177,-0L0.09,-0Z" style="fill-rule:nonzero;"/>
                    </g>
                    <g transform="matrix(42.524618,0,0,44.887096,1118.510835,1811.115055)">
                        <rect x="0.09" y="-0.705" width="0.088" height="0.705" style="fill-rule:nonzero;"/>
                    </g>
                    <g transform="matrix(42.524618,0,0,44.887096,1141.075128,1811.115055)">
                        <path d="M0.134,-0.251L0.134,-0.33L0.333,-0.33C0.383,-0.33 0.423,-0.343 0.45,-0.369C0.478,-0.395 0.492,-0.431 0.492,-0.478L0.492,-0.479C0.492,-0.525 0.478,-0.561 0.45,-0.587C0.423,-0.613 0.383,-0.626 0.333,-0.626L0.134,-0.626L0.134,-0.705L0.355,-0.705C0.4,-0.705 0.439,-0.695 0.473,-0.676C0.507,-0.657 0.533,-0.631 0.552,-0.597C0.572,-0.563 0.582,-0.524 0.582,-0.479L0.582,-0.479C0.582,-0.434 0.572,-0.395 0.552,-0.36C0.533,-0.326 0.507,-0.299 0.473,-0.28C0.439,-0.261 0.4,-0.251 0.355,-0.251L0.134,-0.251ZM0.09,-0L0.09,-0.705L0.178,-0.705L0.178,-0L0.09,-0Z" style="fill-rule:nonzero;"/>
                    </g>
                    <g transform="matrix(42.524618,0,0,44.887096,1179.274694,1811.115055)">
                        <path d="M0.09,-0L0.09,-0.705L0.178,-0.705L0.178,-0.079L0.518,-0.079L0.518,-0L0.09,-0Z" style="fill-rule:nonzero;"/>
                    </g>
                    <g transform="matrix(42.524618,0,0,44.887096,1214.60883,1811.115055)">
                        <path d="M0.09,-0L0.09,-0.705L0.526,-0.705L0.526,-0.625L0.178,-0.625L0.178,-0.399L0.508,-0.399L0.508,-0.321L0.178,-0.321L0.178,-0.079L0.526,-0.079L0.526,-0L0.09,-0Z" style="fill-rule:nonzero;"/>
                    </g>
                    <g transform="matrix(42.524618,0,0,44.887096,1251.126514,1811.115055)">
                        <path d="M0.043,-0L0.305,-0.385L0.284,-0.317L0.284,-0.356L0.046,-0.705L0.152,-0.705L0.341,-0.421L0.381,-0.421L0.323,-0.39L0.534,-0.705L0.634,-0.705L0.391,-0.352L0.391,-0.312L0.37,-0.38L0.629,-0L0.523,-0L0.336,-0.281L0.296,-0.281L0.354,-0.312L0.143,-0L0.043,-0Z" style="fill-rule:nonzero;"/>
                    </g>
                </g>
                <g transform="matrix(3.340601,0,0,3.287512,-2448.233049,-6340.467976)">
                    <g transform="matrix(3.197937,0,0,3.35062,-2096.207932,-3978.30648)">
                        <path d="M1048.112,1811.641C1055.629,1811.641 1060.239,1806.819 1060.239,1800.003L1060.239,1791.539C1060.239,1789.96 1059.367,1788.996 1057.934,1788.996C1056.48,1788.996 1055.608,1789.96 1055.608,1791.539L1055.608,1799.586C1055.608,1804.101 1052.888,1807.279 1048.112,1807.279C1043.337,1807.279 1040.637,1804.101 1040.637,1799.586L1040.637,1786.004C1040.637,1784.426 1039.745,1783.461 1038.312,1783.461C1036.858,1783.461 1035.986,1784.426 1035.986,1786.004L1035.986,1800.003C1035.986,1806.819 1040.596,1811.641 1048.112,1811.641Z" style="fill:rgb(0,217,255);fill-rule:nonzero;"/>
                    </g>
                    <g transform="matrix(-3.197937,-0,0,-3.35062,4638.386619,8056.016108)">
                        <path d="M1048.112,1811.641C1055.629,1811.641 1060.239,1806.819 1060.239,1800.003L1060.239,1791.539C1060.239,1789.96 1059.367,1788.996 1057.934,1788.996C1056.48,1788.996 1055.608,1789.96 1055.608,1791.539L1055.608,1799.586C1055.608,1804.101 1052.888,1807.279 1048.112,1807.279C1043.337,1807.279 1040.637,1804.101 1040.637,1799.586L1040.637,1786.004C1040.637,1784.426 1039.745,1783.461 1038.312,1783.461C1036.858,1783.461 1035.986,1784.426 1035.986,1786.004L1035.986,1800.003C1035.986,1806.819 1040.596,1811.641 1048.112,1811.641Z" style="fill:rgb(0,217,255);fill-rule:nonzero;"/>
                    </g>
                </g>
            </g>
            <g transform="matrix(0.911968,0,0,1.166427,1029.783026,-239.379392)">
                <g transform="matrix(103.220116,0,0,98.05911,651.372197,950.849274)">
                    <path d="M0.273,-0L0.273,-0.625L0.046,-0.625L0.046,-0.705L0.588,-0.705L0.588,-0.625L0.361,-0.625L0.361,-0L0.273,-0Z" style="fill-rule:nonzero;"/>
                </g>
                <g transform="matrix(103.220116,0,0,98.05911,739.504435,950.849274)">
                    <path d="M0.09,-0L0.09,-0.705L0.178,-0.705L0.178,-0.4L0.564,-0.4L0.564,-0.705L0.652,-0.705L0.652,-0L0.564,-0L0.564,-0.321L0.178,-0.321L0.178,-0L0.09,-0Z" style="fill-rule:nonzero;"/>
                </g>
                <g transform="matrix(103.220116,0,0,98.05911,838.825572,950.849274)">
                    <path d="M0.09,-0L0.09,-0.705L0.526,-0.705L0.526,-0.625L0.178,-0.625L0.178,-0.399L0.508,-0.399L0.508,-0.321L0.178,-0.321L0.178,-0.079L0.526,-0.079L0.526,-0L0.09,-0Z" style="fill-rule:nonzero;"/>
                </g>
                <g transform="matrix(103.220116,0,0,98.05911,974.76969,950.849274)">
                    <path d="M0.273,-0L0.273,-0.625L0.046,-0.625L0.046,-0.705L0.588,-0.705L0.588,-0.625L0.361,-0.625L0.361,-0L0.273,-0Z" style="fill-rule:nonzero;"/>
                </g>
                <g transform="matrix(103.220116,0,0,98.05911,1062.901928,950.849274)">
                    <path d="M0.09,-0L0.09,-0.705L0.359,-0.705C0.404,-0.705 0.444,-0.696 0.477,-0.678C0.511,-0.661 0.537,-0.637 0.556,-0.605C0.574,-0.574 0.583,-0.537 0.583,-0.495L0.583,-0.494C0.583,-0.445 0.571,-0.403 0.546,-0.367C0.521,-0.331 0.486,-0.306 0.442,-0.292L0.605,-0L0.502,-0L0.351,-0.279L0.178,-0.279L0.178,-0L0.09,-0ZM0.178,-0.357L0.351,-0.357C0.396,-0.357 0.431,-0.369 0.456,-0.392C0.48,-0.415 0.493,-0.448 0.493,-0.491L0.493,-0.492C0.493,-0.534 0.48,-0.567 0.454,-0.591C0.428,-0.615 0.393,-0.626 0.347,-0.626L0.178,-0.626L0.178,-0.357Z" style="fill-rule:nonzero;"/>
                </g>
                <g transform="matrix(103.220116,0,0,98.05911,1153.050184,950.849274)">
                    <path d="M0.369,0.017C0.311,0.017 0.261,0.006 0.219,-0.016C0.177,-0.038 0.145,-0.068 0.123,-0.107C0.1,-0.146 0.089,-0.191 0.089,-0.242L0.089,-0.705L0.177,-0.705L0.177,-0.248C0.177,-0.212 0.184,-0.18 0.199,-0.153C0.215,-0.125 0.236,-0.104 0.265,-0.088C0.294,-0.072 0.328,-0.064 0.369,-0.064C0.41,-0.064 0.444,-0.072 0.473,-0.088C0.501,-0.104 0.523,-0.125 0.538,-0.153C0.553,-0.18 0.561,-0.212 0.561,-0.248L0.561,-0.705L0.648,-0.705L0.648,-0.242C0.648,-0.191 0.637,-0.146 0.615,-0.107C0.593,-0.068 0.561,-0.038 0.519,-0.016C0.477,0.006 0.427,0.017 0.369,0.017Z" style="fill-rule:nonzero;"/>
                </g>
                <g transform="matrix(103.220116,0,0,98.05911,1251.867317,950.849274)">
                    <path d="M0.321,0.017C0.269,0.017 0.225,0.008 0.186,-0.009C0.148,-0.025 0.118,-0.048 0.095,-0.078C0.073,-0.107 0.06,-0.141 0.057,-0.179L0.056,-0.185L0.144,-0.185L0.145,-0.179C0.147,-0.156 0.156,-0.135 0.172,-0.118C0.187,-0.101 0.209,-0.088 0.235,-0.079C0.262,-0.069 0.292,-0.064 0.326,-0.064C0.358,-0.064 0.386,-0.07 0.411,-0.08C0.436,-0.09 0.455,-0.104 0.47,-0.123C0.484,-0.141 0.491,-0.162 0.491,-0.186L0.491,-0.186C0.491,-0.215 0.48,-0.24 0.459,-0.26C0.438,-0.28 0.403,-0.295 0.354,-0.306L0.276,-0.323C0.205,-0.339 0.154,-0.363 0.122,-0.396C0.09,-0.428 0.074,-0.47 0.074,-0.521L0.074,-0.522C0.074,-0.561 0.085,-0.596 0.106,-0.625C0.127,-0.655 0.156,-0.679 0.193,-0.696C0.23,-0.713 0.273,-0.721 0.322,-0.721C0.369,-0.721 0.41,-0.713 0.446,-0.696C0.482,-0.679 0.511,-0.657 0.532,-0.628C0.554,-0.6 0.566,-0.568 0.568,-0.533L0.568,-0.526L0.48,-0.526L0.479,-0.533C0.476,-0.554 0.468,-0.572 0.454,-0.588C0.44,-0.604 0.422,-0.617 0.399,-0.626C0.377,-0.636 0.35,-0.64 0.319,-0.64C0.29,-0.64 0.264,-0.636 0.24,-0.626C0.217,-0.617 0.198,-0.604 0.184,-0.587C0.17,-0.57 0.164,-0.549 0.164,-0.524L0.164,-0.524C0.164,-0.496 0.174,-0.472 0.195,-0.453C0.216,-0.434 0.25,-0.419 0.298,-0.409L0.376,-0.391C0.425,-0.38 0.465,-0.366 0.495,-0.349C0.525,-0.332 0.546,-0.311 0.56,-0.286C0.574,-0.261 0.581,-0.232 0.581,-0.198L0.581,-0.197C0.581,-0.153 0.57,-0.115 0.549,-0.083C0.527,-0.052 0.497,-0.027 0.458,-0.01C0.419,0.008 0.373,0.017 0.321,0.017Z" style="fill-rule:nonzero;"/>
                </g>
                <g transform="matrix(103.220116,0,0,98.05911,1340.352358,950.849274)">
                    <path d="M0.273,-0L0.273,-0.625L0.046,-0.625L0.046,-0.705L0.588,-0.705L0.588,-0.625L0.361,-0.625L0.361,-0L0.273,-0Z" style="fill-rule:nonzero;"/>
                </g>
                <g transform="matrix(103.220116,0,0,98.05911,1480.227711,950.849274)">
                    <path d="M0.09,-0L0.09,-0.705L0.178,-0.705L0.178,-0.079L0.518,-0.079L0.518,-0L0.09,-0Z" style="fill-rule:nonzero;"/>
                </g>
                <g transform="matrix(103.220116,0,0,98.05911,1561.555888,950.849274)">
                    <path d="M0.034,-0L0.293,-0.705L0.361,-0.705L0.361,-0.591L0.333,-0.591L0.126,-0L0.034,-0ZM0.151,-0.202L0.179,-0.276L0.497,-0.276L0.524,-0.202L0.151,-0.202ZM0.548,-0L0.341,-0.591L0.341,-0.705L0.38,-0.705L0.64,-0L0.548,-0Z" style="fill-rule:nonzero;"/>
                </g>
                <g transform="matrix(103.220116,0,0,98.05911,1646.260896,950.849274)">
                    <path d="M0.284,-0L0.284,-0.303L0.034,-0.705L0.134,-0.705L0.324,-0.392L0.332,-0.392L0.521,-0.705L0.622,-0.705L0.372,-0.303L0.372,-0L0.284,-0Z" style="fill-rule:nonzero;"/>
                </g>
                <g transform="matrix(103.220116,0,0,98.05911,1736.610753,950.849274)">
                    <path d="M0.09,-0L0.09,-0.705L0.526,-0.705L0.526,-0.625L0.178,-0.625L0.178,-0.399L0.508,-0.399L0.508,-0.321L0.178,-0.321L0.178,-0.079L0.526,-0.079L0.526,-0L0.09,-0Z" style="fill-rule:nonzero;"/>
                </g>
                <g transform="matrix(103.220116,0,0,98.05911,1820.811756,950.849274)">
                    <path d="M0.09,-0L0.09,-0.705L0.359,-0.705C0.404,-0.705 0.444,-0.696 0.477,-0.678C0.511,-0.661 0.537,-0.637 0.556,-0.605C0.574,-0.574 0.583,-0.537 0.583,-0.495L0.583,-0.494C0.583,-0.445 0.571,-0.403 0.546,-0.367C0.521,-0.331 0.486,-0.306 0.442,-0.292L0.605,-0L0.502,-0L0.351,-0.279L0.178,-0.279L0.178,-0L0.09,-0ZM0.178,-0.357L0.351,-0.357C0.396,-0.357 0.431,-0.369 0.456,-0.392C0.48,-0.415 0.493,-0.448 0.493,-0.491L0.493,-0.492C0.493,-0.534 0.48,-0.567 0.454,-0.591C0.428,-0.615 0.393,-0.626 0.347,-0.626L0.178,-0.626L0.178,-0.357Z" style="fill-rule:nonzero;"/>
                </g>
                <g transform="matrix(103.220116,0,0,98.05911,1962.703127,950.849274)">
                    <path d="M0.09,-0L0.09,-0.705L0.518,-0.705L0.518,-0.625L0.178,-0.625L0.178,-0.383L0.49,-0.383L0.49,-0.305L0.178,-0.305L0.178,-0L0.09,-0Z" style="fill-rule:nonzero;"/>
                </g>
                <g transform="matrix(103.220116,0,0,98.05911,2044.484908,950.849274)">
                    <path d="M0.386,0.017C0.318,0.017 0.261,0.002 0.212,-0.029C0.164,-0.059 0.127,-0.101 0.101,-0.157C0.075,-0.212 0.062,-0.277 0.062,-0.352L0.062,-0.353C0.062,-0.429 0.076,-0.494 0.102,-0.549C0.128,-0.604 0.165,-0.646 0.214,-0.676C0.262,-0.706 0.319,-0.721 0.386,-0.721C0.452,-0.721 0.51,-0.706 0.558,-0.676C0.607,-0.646 0.644,-0.604 0.67,-0.549C0.696,-0.493 0.709,-0.428 0.709,-0.353L0.709,-0.352C0.709,-0.277 0.696,-0.212 0.67,-0.157C0.644,-0.102 0.607,-0.059 0.559,-0.029C0.51,0.001 0.453,0.017 0.386,0.017ZM0.386,-0.064C0.434,-0.064 0.475,-0.076 0.51,-0.1C0.545,-0.124 0.572,-0.157 0.591,-0.2C0.61,-0.244 0.619,-0.294 0.619,-0.352L0.619,-0.353C0.619,-0.412 0.61,-0.462 0.591,-0.505C0.572,-0.548 0.545,-0.582 0.51,-0.605C0.475,-0.628 0.434,-0.64 0.386,-0.64C0.338,-0.64 0.297,-0.628 0.262,-0.605C0.227,-0.582 0.2,-0.548 0.181,-0.505C0.162,-0.462 0.152,-0.412 0.152,-0.353L0.152,-0.352C0.152,-0.294 0.162,-0.244 0.18,-0.2C0.199,-0.157 0.225,-0.124 0.26,-0.1C0.295,-0.076 0.337,-0.064 0.386,-0.064Z" style="fill-rule:nonzero;"/>
                </g>
                <g transform="matrix(103.220116,0,0,98.05911,2146.830072,950.849274)">
                    <path d="M0.09,-0L0.09,-0.705L0.359,-0.705C0.404,-0.705 0.444,-0.696 0.477,-0.678C0.511,-0.661 0.537,-0.637 0.556,-0.605C0.574,-0.574 0.583,-0.537 0.583,-0.495L0.583,-0.494C0.583,-0.445 0.571,-0.403 0.546,-0.367C0.521,-0.331 0.486,-0.306 0.442,-0.292L0.605,-0L0.502,-0L0.351,-0.279L0.178,-0.279L0.178,-0L0.09,-0ZM0.178,-0.357L0.351,-0.357C0.396,-0.357 0.431,-0.369 0.456,-0.392C0.48,-0.415 0.493,-0.448 0.493,-0.491L0.493,-0.492C0.493,-0.534 0.48,-0.567 0.454,-0.591C0.428,-0.615 0.393,-0.626 0.347,-0.626L0.178,-0.626L0.178,-0.357Z" style="fill-rule:nonzero;"/>
                </g>
                <g transform="matrix(103.220116,0,0,98.05911,2288.721443,950.849274)">
                    <path d="M0.034,-0L0.293,-0.705L0.361,-0.705L0.361,-0.591L0.333,-0.591L0.126,-0L0.034,-0ZM0.151,-0.202L0.179,-0.276L0.497,-0.276L0.524,-0.202L0.151,-0.202ZM0.548,-0L0.341,-0.591L0.341,-0.705L0.38,-0.705L0.64,-0L0.548,-0Z" style="fill-rule:nonzero;"/>
                </g>
                <g transform="matrix(103.220116,0,0,98.05911,2380.986518,950.849274)">
                    <rect x="0.09" y="-0.705" width="0.088" height="0.705" style="fill-rule:nonzero;"/>
                </g>
                <g transform="matrix(103.220116,0,0,98.05911,2483.061535,950.849274)">
                    <path d="M0.034,-0L0.293,-0.705L0.361,-0.705L0.361,-0.591L0.333,-0.591L0.126,-0L0.034,-0ZM0.151,-0.202L0.179,-0.276L0.497,-0.276L0.524,-0.202L0.151,-0.202ZM0.548,-0L0.341,-0.591L0.341,-0.705L0.38,-0.705L0.64,-0L0.548,-0Z" style="fill-rule:nonzero;"/>
                </g>
                <g transform="matrix(103.220116,0,0,98.05911,2571.798578,950.849274)">
                    <path d="M0.382,0.017C0.333,0.017 0.289,0.008 0.25,-0.009C0.211,-0.027 0.177,-0.051 0.149,-0.083C0.121,-0.116 0.1,-0.154 0.085,-0.2C0.07,-0.245 0.062,-0.296 0.062,-0.352L0.062,-0.353C0.062,-0.427 0.076,-0.492 0.102,-0.547C0.128,-0.602 0.166,-0.645 0.214,-0.676C0.262,-0.706 0.318,-0.721 0.382,-0.721C0.434,-0.721 0.48,-0.712 0.521,-0.694C0.562,-0.675 0.596,-0.649 0.622,-0.616C0.649,-0.583 0.667,-0.544 0.676,-0.5L0.677,-0.495L0.588,-0.495L0.586,-0.5C0.572,-0.545 0.548,-0.58 0.513,-0.604C0.478,-0.628 0.434,-0.64 0.382,-0.64C0.335,-0.64 0.295,-0.628 0.26,-0.605C0.226,-0.581 0.2,-0.548 0.181,-0.505C0.162,-0.462 0.152,-0.411 0.152,-0.353L0.152,-0.352C0.152,-0.308 0.158,-0.268 0.168,-0.232C0.179,-0.197 0.194,-0.167 0.214,-0.142C0.234,-0.117 0.258,-0.098 0.287,-0.084C0.315,-0.071 0.347,-0.064 0.382,-0.064C0.424,-0.064 0.461,-0.073 0.493,-0.09C0.525,-0.106 0.549,-0.13 0.567,-0.16C0.584,-0.19 0.593,-0.224 0.593,-0.264L0.593,-0.281L0.396,-0.281L0.396,-0.358L0.681,-0.358L0.681,-0.272C0.681,-0.229 0.674,-0.19 0.66,-0.154C0.646,-0.119 0.625,-0.088 0.599,-0.063C0.573,-0.037 0.541,-0.018 0.504,-0.004C0.468,0.01 0.427,0.017 0.382,0.017Z" style="fill-rule:nonzero;"/>
                </g>
                <g transform="matrix(103.220116,0,0,98.05911,2671.57332,950.849274)">
                    <path d="M0.09,-0L0.09,-0.705L0.526,-0.705L0.526,-0.625L0.178,-0.625L0.178,-0.399L0.508,-0.399L0.508,-0.321L0.178,-0.321L0.178,-0.079L0.526,-0.079L0.526,-0L0.09,-0Z" style="fill-rule:nonzero;"/>
                </g>
                <g transform="matrix(103.220116,0,0,98.05911,2755.774323,950.849274)">
                    <path d="M0.09,-0L0.09,-0.705L0.175,-0.705L0.579,-0.125L0.521,-0.156L0.565,-0.156L0.565,-0.705L0.652,-0.705L0.652,-0L0.567,-0L0.163,-0.577L0.222,-0.546L0.177,-0.546L0.177,-0L0.09,-0Z" style="fill-rule:nonzero;"/>
                </g>
                <g transform="matrix(103.220116,0,0,98.05911,2855.09546,950.849274)">
                    <path d="M0.273,-0L0.273,-0.625L0.046,-0.625L0.046,-0.705L0.588,-0.705L0.588,-0.625L0.361,-0.625L0.361,-0L0.273,-0Z" style="fill-rule:nonzero;"/>
                </g>
                <g transform="matrix(103.220116,0,0,98.05911,2943.227698,950.849274)">
                    <path d="M0.321,0.017C0.269,0.017 0.225,0.008 0.186,-0.009C0.148,-0.025 0.118,-0.048 0.095,-0.078C0.073,-0.107 0.06,-0.141 0.057,-0.179L0.056,-0.185L0.144,-0.185L0.145,-0.179C0.147,-0.156 0.156,-0.135 0.172,-0.118C0.187,-0.101 0.209,-0.088 0.235,-0.079C0.262,-0.069 0.292,-0.064 0.326,-0.064C0.358,-0.064 0.386,-0.07 0.411,-0.08C0.436,-0.09 0.455,-0.104 0.47,-0.123C0.484,-0.141 0.491,-0.162 0.491,-0.186L0.491,-0.186C0.491,-0.215 0.48,-0.24 0.459,-0.26C0.438,-0.28 0.403,-0.295 0.354,-0.306L0.276,-0.323C0.205,-0.339 0.154,-0.363 0.122,-0.396C0.09,-0.428 0.074,-0.47 0.074,-0.521L0.074,-0.522C0.074,-0.561 0.085,-0.596 0.106,-0.625C0.127,-0.655 0.156,-0.679 0.193,-0.696C0.23,-0.713 0.273,-0.721 0.322,-0.721C0.369,-0.721 0.41,-0.713 0.446,-0.696C0.482,-0.679 0.511,-0.657 0.532,-0.628C0.554,-0.6 0.566,-0.568 0.568,-0.533L0.568,-0.526L0.48,-0.526L0.479,-0.533C0.476,-0.554 0.468,-0.572 0.454,-0.588C0.44,-0.604 0.422,-0.617 0.399,-0.626C0.377,-0.636 0.35,-0.64 0.319,-0.64C0.29,-0.64 0.264,-0.636 0.24,-0.626C0.217,-0.617 0.198,-0.604 0.184,-0.587C0.17,-0.57 0.164,-0.549 0.164,-0.524L0.164,-0.524C0.164,-0.496 0.174,-0.472 0.195,-0.453C0.216,-0.434 0.25,-0.419 0.298,-0.409L0.376,-0.391C0.425,-0.38 0.465,-0.366 0.495,-0.349C0.525,-0.332 0.546,-0.311 0.56,-0.286C0.574,-0.261 0.581,-0.232 0.581,-0.198L0.581,-0.197C0.581,-0.153 0.57,-0.115 0.549,-0.083C0.527,-0.052 0.497,-0.027 0.458,-0.01C0.419,0.008 0.373,0.017 0.321,0.017Z" style="fill-rule:nonzero;"/>
                </g>
            </g>
        </g>
    </g>
</svg>
