<?xml version="1.0" encoding="UTF-8" standalone="no"?>
<!DOCTYPE svg PUBLIC "-//W3C//DTD SVG 1.1//EN" "http://www.w3.org/Graphics/SVG/1.1/DTD/svg11.dtd">
<svg width="100%" height="100%" viewBox="0 0 2925 809" version="1.1" xmlns="http://www.w3.org/2000/svg" xmlns:xlink="http://www.w3.org/1999/xlink" xml:space="preserve" xmlns:serif="http://www.serif.com/" style="fill-rule:evenodd;clip-rule:evenodd;stroke-linejoin:round;stroke-miterlimit:2;">
    <g id="Artboard1" transform="matrix(1.005846,0,0,0.734787,-1245.237276,28.656676)">
        <rect x="1238" y="-39" width="2908" height="1101" style="fill:none;"/>
        <g transform="matrix(0.92717,0,0,1.270072,185.455319,-85.138689)">
            <g transform="matrix(6.903823,0,0,6.899075,-5033.543498,-12019.068494)">
                <g transform="matrix(0.9,0,0,0.95,103.322472,90.555753)">
                    <g transform="matrix(47.249575,0,0,47.249575,1309.298456,1811.115055)">
                    </g>
                    <text x="1033.225px" y="1811.115px" style="font-family:'SFPro-Regular', 'SF Pro';font-size:47.25px;">U<tspan x="1080.491px 1127.987px 1153.059px 1195.502px 1234.763px 1275.338px " y="1811.115px 1811.115px 1811.115px 1811.115px 1811.115px 1811.115px ">NIPLEX</tspan></text>
                </g>
            </g>
            <g transform="matrix(3.340601,0,0,3.287512,-2448.233049,-6340.467976)">
                <g transform="matrix(3.197937,0,0,3.35062,-2096.207932,-3978.30648)">
                    <path d="M1048.112,1811.641C1055.629,1811.641 1060.239,1806.819 1060.239,1800.003L1060.239,1791.539C1060.239,1789.96 1059.367,1788.996 1057.934,1788.996C1056.48,1788.996 1055.608,1789.96 1055.608,1791.539L1055.608,1799.586C1055.608,1804.101 1052.888,1807.279 1048.112,1807.279C1043.337,1807.279 1040.637,1804.101 1040.637,1799.586L1040.637,1786.004C1040.637,1784.426 1039.745,1783.461 1038.312,1783.461C1036.858,1783.461 1035.986,1784.426 1035.986,1786.004L1035.986,1800.003C1035.986,1806.819 1040.596,1811.641 1048.112,1811.641Z" style="fill:rgb(40,229,233);fill-rule:nonzero;"/>
                </g>
                <g transform="matrix(-3.197937,-0,0,-3.35062,4638.386619,8056.016108)">
                    <path d="M1048.112,1811.641C1055.629,1811.641 1060.239,1806.819 1060.239,1800.003L1060.239,1791.539C1060.239,1789.96 1059.367,1788.996 1057.934,1788.996C1056.48,1788.996 1055.608,1789.96 1055.608,1791.539L1055.608,1799.586C1055.608,1804.101 1052.888,1807.279 1048.112,1807.279C1043.337,1807.279 1040.637,1804.101 1040.637,1799.586L1040.637,1786.004C1040.637,1784.426 1039.745,1783.461 1038.312,1783.461C1036.858,1783.461 1035.986,1784.426 1035.986,1786.004L1035.986,1800.003C1035.986,1806.819 1040.596,1811.641 1048.112,1811.641Z" style="fill:rgb(40,229,233);fill-rule:nonzero;"/>
                </g>
            </g>
        </g>
        <g transform="matrix(0.782578,0,0,1.071267,1282.023041,-129.12718)">
            <g transform="matrix(1,0,0,0.95,-0,47.542464)">
                <g transform="matrix(103.220116,0,0,103.220116,3013.133118,950.849274)">
                </g>
                <text x="651.372px" y="950.849px" style="font-family:'SFPro-Regular', 'SF Pro';font-size:103.22px;">T<tspan x="739.504px 838.826px 923.027px 974.77px 1062.902px 1153.05px 1251.867px 1340.352px 1428.485px 1480.228px 1561.556px 1646.261px 1736.611px 1820.812px 1910.96px 1962.703px 2044.485px 2146.83px 2236.978px 2288.721px 2380.987px 2431.318px 2483.062px 2571.799px 2671.573px 2755.774px 2855.095px 2943.228px " y="950.849px 950.849px 950.849px 950.849px 950.849px 950.849px 950.849px 950.849px 950.849px 950.849px 950.849px 950.849px 950.849px 950.849px 950.849px 950.849px 950.849px 950.849px 950.849px 950.849px 950.849px 950.849px 950.849px 950.849px 950.849px 950.849px 950.849px 950.849px ">HE TRUST LAYER FOR AI AGENTS</tspan></text>
            </g>
        </g>
    </g>
</svg>
