<?xml version="1.0" encoding="UTF-8" standalone="no"?>
<!DOCTYPE svg PUBLIC "-//W3C//DTD SVG 1.1//EN" "http://www.w3.org/Graphics/SVG/1.1/DTD/svg11.dtd">
<svg width="100%" height="100%" viewBox="0 0 2510 743" version="1.1" xmlns="http://www.w3.org/2000/svg" xmlns:xlink="http://www.w3.org/1999/xlink" xml:space="preserve" xmlns:serif="http://www.serif.com/" style="fill-rule:evenodd;clip-rule:evenodd;stroke-linejoin:round;stroke-miterlimit:2;">
    <g id="Artboard1" transform="matrix(0.863136,0,0,0.674841,-1068.562586,26.318801)">
        <rect x="1238" y="-39" width="2908" height="1101" style="fill:none;"/>
        <g transform="matrix(1,0,0,1,-6.372112,29.488425)">
            <g transform="matrix(1.080467,0,0,1.382892,-222.601272,-191.483444)">
                <g transform="matrix(6.903823,0,0,6.899075,-5033.543498,-12019.068494)">
                    <path d="M1048.922,1811.86C1046.444,1811.86 1044.316,1811.371 1042.537,1810.392C1040.759,1809.413 1039.392,1808.05 1038.436,1806.304C1037.481,1804.558 1037.004,1802.538 1037.004,1800.244L1037.004,1779.488L1040.741,1779.488L1040.741,1799.981C1040.741,1801.603 1041.063,1803.031 1041.707,1804.266C1042.35,1805.501 1043.281,1806.469 1044.5,1807.17C1045.718,1807.871 1047.192,1808.222 1048.922,1808.222C1050.653,1808.222 1052.123,1807.871 1053.335,1807.17C1054.546,1806.469 1055.47,1805.501 1056.107,1804.266C1056.743,1803.031 1057.062,1801.603 1057.062,1799.981L1057.062,1779.488L1060.799,1779.488L1060.799,1800.244C1060.799,1802.538 1060.325,1804.558 1059.377,1806.304C1058.429,1808.05 1057.069,1809.413 1055.297,1810.392C1053.525,1811.371 1051.4,1811.86 1048.922,1811.86Z" style="fill:white;fill-rule:nonzero;"/>
                    <path d="M1079.585,1811.115L1079.585,1779.488L1083.218,1779.488L1100.39,1805.482L1097.898,1804.101L1099.809,1804.101L1099.809,1779.488L1103.505,1779.488L1103.505,1811.115L1099.871,1811.115L1082.699,1785.209L1085.191,1786.589L1083.281,1786.589L1083.281,1811.115L1079.585,1811.115Z" style="fill:white;fill-rule:nonzero;"/>
                    <rect x="1122.331" y="1779.488" width="3.738" height="31.627" style="fill:white;fill-rule:nonzero;"/>
                    <path d="M1146.764,1799.828L1146.764,1796.321L1155.236,1796.321C1157.382,1796.321 1159.043,1795.733 1160.22,1794.556C1161.396,1793.38 1161.984,1791.755 1161.984,1789.68L1161.984,1789.636C1161.984,1787.546 1161.396,1785.917 1160.22,1784.748C1159.043,1783.579 1157.382,1782.995 1155.236,1782.995L1146.764,1782.995L1146.764,1779.488L1156.191,1779.488C1158.074,1779.488 1159.735,1779.912 1161.175,1780.759C1162.614,1781.607 1163.746,1782.79 1164.57,1784.31C1165.393,1785.83 1165.805,1787.59 1165.805,1789.592L1165.805,1789.636C1165.805,1791.638 1165.393,1793.406 1164.57,1794.94C1163.746,1796.474 1162.614,1797.672 1161.175,1798.534C1159.735,1799.396 1158.074,1799.828 1156.191,1799.828L1146.764,1799.828ZM1144.896,1811.115L1144.896,1779.488L1148.633,1779.488L1148.633,1811.115L1144.896,1811.115Z" style="fill:white;fill-rule:nonzero;"/>
                    <path d="M1183.095,1811.115L1183.095,1779.488L1186.833,1779.488L1186.833,1807.564L1201.285,1807.564L1201.285,1811.115L1183.095,1811.115Z" style="fill:white;fill-rule:nonzero;"/>
                    <path d="M1218.429,1811.115L1218.429,1779.488L1236.992,1779.488L1236.992,1783.039L1222.167,1783.039L1222.167,1793.187L1236.224,1793.187L1236.224,1796.693L1222.167,1796.693L1222.167,1807.564L1236.992,1807.564L1236.992,1811.115L1218.429,1811.115Z" style="fill:white;fill-rule:nonzero;"/>
                    <path d="M1252.975,1811.115L1264.083,1793.844L1263.19,1796.891L1263.19,1795.137L1253.099,1779.488L1257.605,1779.488L1265.62,1792.222L1267.322,1792.222L1264.852,1793.625L1273.842,1779.488L1278.099,1779.488L1267.738,1795.334L1267.738,1797.088L1266.845,1794.041L1277.871,1811.115L1273.385,1811.115L1265.412,1798.491L1263.709,1798.491L1266.18,1797.11L1257.21,1811.115L1252.975,1811.115Z" style="fill:white;fill-rule:nonzero;"/>
                </g>
                <g transform="matrix(3.340601,0,0,3.287512,-2448.233049,-6340.467976)">
                    <g transform="matrix(3.197937,0,0,3.35062,-2096.207932,-3978.30648)">
                        <path d="M1048.112,1811.641C1055.629,1811.641 1060.239,1806.819 1060.239,1800.003L1060.239,1791.539C1060.239,1789.96 1059.367,1788.996 1057.934,1788.996C1056.48,1788.996 1055.608,1789.96 1055.608,1791.539L1055.608,1799.586C1055.608,1804.101 1052.888,1807.279 1048.112,1807.279C1043.337,1807.279 1040.637,1804.101 1040.637,1799.586L1040.637,1786.004C1040.637,1784.426 1039.745,1783.461 1038.312,1783.461C1036.858,1783.461 1035.986,1784.426 1035.986,1786.004L1035.986,1800.003C1035.986,1806.819 1040.596,1811.641 1048.112,1811.641Z" style="fill:rgb(0,217,255);fill-rule:nonzero;"/>
                    </g>
                    <g transform="matrix(-3.197937,-0,0,-3.35062,4638.386619,8056.016108)">
                        <path d="M1048.112,1811.641C1055.629,1811.641 1060.239,1806.819 1060.239,1800.003L1060.239,1791.539C1060.239,1789.96 1059.367,1788.996 1057.934,1788.996C1056.48,1788.996 1055.608,1789.96 1055.608,1791.539L1055.608,1799.586C1055.608,1804.101 1052.888,1807.279 1048.112,1807.279C1043.337,1807.279 1040.637,1804.101 1040.637,1799.586L1040.637,1786.004C1040.637,1784.426 1039.745,1783.461 1038.312,1783.461C1036.858,1783.461 1035.986,1784.426 1035.986,1786.004L1035.986,1800.003C1035.986,1806.819 1040.596,1811.641 1048.112,1811.641Z" style="fill:rgb(0,217,255);fill-rule:nonzero;"/>
                    </g>
                </g>
            </g>
            <g transform="matrix(0.911968,0,0,1.166427,1029.783026,-239.379392)">
                <path d="M679.546,950.849L679.546,889.514L656.11,889.514L656.11,881.758L712.054,881.758L712.054,889.514L688.618,889.514L688.618,950.849L679.546,950.849Z" style="fill:white;fill-rule:nonzero;"/>
                <path d="M748.778,950.849L748.778,881.758L757.85,881.758L757.85,911.635L797.767,911.635L797.767,881.758L806.839,881.758L806.839,950.849L797.767,950.849L797.767,919.392L757.85,919.392L757.85,950.849L748.778,950.849Z" style="fill:white;fill-rule:nonzero;"/>
                <path d="M848.099,950.849L848.099,881.758L893.157,881.758L893.157,889.514L857.171,889.514L857.171,911.683L891.292,911.683L891.292,919.344L857.171,919.344L857.171,943.093L893.157,943.093L893.157,950.849L848.099,950.849Z" style="fill:white;fill-rule:nonzero;"/>
                <path d="M1002.944,950.849L1002.944,889.514L979.507,889.514L979.507,881.758L1035.452,881.758L1035.452,889.514L1012.016,889.514L1012.016,950.849L1002.944,950.849Z" style="fill:white;fill-rule:nonzero;"/>
                <path d="M1072.176,950.849L1072.176,881.758L1099.946,881.758C1104.617,881.758 1108.691,882.612 1112.168,884.319C1115.646,886.027 1118.342,888.413 1120.258,891.478C1122.173,894.542 1123.13,898.149 1123.13,902.299L1123.13,902.394C1123.13,907.182 1121.837,911.332 1119.25,914.843C1116.662,918.354 1113.084,920.796 1108.514,922.169L1125.348,950.849L1114.714,950.849L1099.14,923.51L1081.248,923.51L1081.248,950.849L1072.176,950.849ZM1081.248,915.849L1099.14,915.849C1103.81,915.849 1107.414,914.708 1109.951,912.425C1112.488,910.143 1113.756,906.895 1113.756,902.682L1113.756,902.586C1113.756,898.468 1112.429,895.244 1109.774,892.914C1107.12,890.584 1103.441,889.419 1098.737,889.419L1081.248,889.419L1081.248,915.849Z" style="fill:white;fill-rule:nonzero;"/>
                <path d="M1191.153,952.477C1185.138,952.477 1179.972,951.408 1175.655,949.269C1171.337,947.131 1168.019,944.154 1165.701,940.34C1163.382,936.525 1162.223,932.112 1162.223,927.101L1162.223,881.758L1171.295,881.758L1171.295,926.526C1171.295,930.069 1172.076,933.189 1173.639,935.887C1175.201,938.584 1177.461,940.699 1180.418,942.231C1183.374,943.763 1186.953,944.529 1191.153,944.529C1195.353,944.529 1198.923,943.763 1201.863,942.231C1204.803,940.699 1207.046,938.584 1208.591,935.887C1210.137,933.189 1210.91,930.069 1210.91,926.526L1210.91,881.758L1219.982,881.758L1219.982,927.101C1219.982,932.112 1218.831,936.525 1216.53,940.34C1214.228,944.154 1210.927,947.131 1206.626,949.269C1202.325,951.408 1197.167,952.477 1191.153,952.477Z" style="fill:white;fill-rule:nonzero;"/>
                <path d="M1284.98,952.477C1279.672,952.477 1275.043,951.655 1271.095,950.011C1267.147,948.367 1264.022,946.101 1261.721,943.212C1259.419,940.324 1258.083,937.012 1257.714,933.277L1257.663,932.75L1266.735,932.75L1266.786,933.277C1267.021,935.575 1267.953,937.562 1269.583,939.238C1271.213,940.914 1273.397,942.215 1276.135,943.141C1278.874,944.066 1281.99,944.529 1285.484,944.529C1288.777,944.529 1291.709,944.026 1294.279,943.021C1296.85,942.015 1298.874,940.619 1300.353,938.831C1301.831,937.044 1302.57,934.985 1302.57,932.655L1302.57,932.607C1302.57,929.734 1301.461,927.316 1299.244,925.353C1297.026,923.39 1293.414,921.882 1288.408,920.828L1280.344,919.152C1273.052,917.62 1267.752,915.25 1264.442,912.042C1261.133,908.834 1259.478,904.724 1259.478,899.713L1259.478,899.665C1259.511,895.835 1260.612,892.451 1262.779,889.514C1264.946,886.578 1267.953,884.28 1271.801,882.62C1275.648,880.96 1280.075,880.13 1285.081,880.13C1289.92,880.13 1294.204,880.952 1297.933,882.596C1301.663,884.24 1304.628,886.45 1306.829,889.227C1309.03,892.004 1310.248,895.116 1310.483,898.564L1310.533,899.234L1301.461,899.234L1301.361,898.612C1301.025,896.569 1300.151,894.757 1298.74,893.177C1297.329,891.597 1295.447,890.344 1293.095,889.419C1290.743,888.493 1287.988,888.046 1284.829,888.078C1281.805,888.078 1279.084,888.525 1276.664,889.419C1274.245,890.312 1272.321,891.597 1270.893,893.273C1269.465,894.949 1268.751,897 1268.751,899.426L1268.751,899.474C1268.751,902.219 1269.827,904.533 1271.977,906.416C1274.128,908.3 1277.672,909.752 1282.612,910.773L1290.676,912.497C1295.749,913.55 1299.832,914.923 1302.923,916.615C1306.014,918.307 1308.274,920.373 1309.702,922.815C1311.13,925.257 1311.844,928.138 1311.844,931.458L1311.844,931.506C1311.844,935.815 1310.735,939.534 1308.517,942.662C1306.3,945.79 1303.175,948.208 1299.143,949.916C1295.111,951.623 1290.39,952.477 1284.98,952.477Z" style="fill:white;fill-rule:nonzero;"/>
                <path d="M1368.526,950.849L1368.526,889.514L1345.09,889.514L1345.09,881.758L1401.034,881.758L1401.034,889.514L1377.598,889.514L1377.598,950.849L1368.526,950.849Z" style="fill:white;fill-rule:nonzero;"/>
                <path d="M1489.501,950.849L1489.501,881.758L1498.573,881.758L1498.573,943.093L1533.652,943.093L1533.652,950.849L1489.501,950.849Z" style="fill:white;fill-rule:nonzero;"/>
                <path d="M1565.034,950.849L1591.847,881.758L1598.802,881.758L1598.802,892.914L1595.929,892.914L1574.559,950.849L1565.034,950.849ZM1577.18,931.075L1580.002,923.749L1612.864,923.749L1615.686,931.075L1577.18,931.075ZM1618.105,950.849L1596.735,892.914L1596.735,881.758L1600.818,881.758L1627.631,950.849L1618.105,950.849Z" style="fill:white;fill-rule:nonzero;"/>
                <path d="M1675.544,950.849L1675.544,921.116L1649.739,881.758L1660.071,881.758L1679.676,912.449L1680.483,912.449L1700.089,881.758L1710.421,881.758L1684.616,921.116L1684.616,950.849L1675.544,950.849Z" style="fill:white;fill-rule:nonzero;"/>
                <path d="M1745.884,950.849L1745.884,881.758L1790.942,881.758L1790.942,889.514L1754.957,889.514L1754.957,911.683L1789.078,911.683L1789.078,919.344L1754.957,919.344L1754.957,943.093L1790.942,943.093L1790.942,950.849L1745.884,950.849Z" style="fill:white;fill-rule:nonzero;"/>
                <path d="M1830.085,950.849L1830.085,881.758L1857.856,881.758C1862.527,881.758 1866.601,882.612 1870.078,884.319C1873.556,886.027 1876.252,888.413 1878.167,891.478C1880.083,894.542 1881.04,898.149 1881.04,902.299L1881.04,902.394C1881.04,907.182 1879.747,911.332 1877.159,914.843C1874.572,918.354 1870.994,920.796 1866.424,922.169L1883.258,950.849L1872.623,950.849L1857.05,923.51L1839.158,923.51L1839.158,950.849L1830.085,950.849ZM1839.158,915.849L1857.05,915.849C1861.72,915.849 1865.324,914.708 1867.861,912.425C1870.397,910.143 1871.666,906.895 1871.666,902.682L1871.666,902.586C1871.666,898.468 1870.339,895.244 1867.684,892.914C1865.03,890.584 1861.351,889.419 1856.646,889.419L1839.158,889.419L1839.158,915.849Z" style="fill:white;fill-rule:nonzero;"/>
                <path d="M1971.977,950.849L1971.977,881.758L2016.128,881.758L2016.128,889.514L1981.049,889.514L1981.049,913.263L2013.255,913.263L2013.255,920.924L1981.049,920.924L1981.049,950.849L1971.977,950.849Z" style="fill:white;fill-rule:nonzero;"/>
                <path d="M2084.301,952.477C2077.346,952.477 2071.382,951.001 2066.409,948.048C2061.436,945.096 2057.614,940.906 2054.943,935.48C2052.272,930.053 2050.936,923.669 2050.936,916.327L2050.936,916.232C2050.936,908.826 2052.289,902.426 2054.993,897.032C2057.698,891.637 2061.545,887.472 2066.535,884.535C2071.525,881.598 2077.447,880.13 2084.301,880.13C2091.189,880.13 2097.128,881.598 2102.118,884.535C2107.107,887.472 2110.946,891.645 2113.634,897.056C2116.322,902.466 2117.666,908.858 2117.666,916.232L2117.666,916.327C2117.666,923.669 2116.331,930.045 2113.66,935.456C2110.988,940.866 2107.158,945.056 2102.168,948.024C2097.179,950.993 2091.223,952.477 2084.301,952.477ZM2084.301,944.529C2089.274,944.529 2093.558,943.364 2097.153,941.034C2100.749,938.704 2103.521,935.424 2105.469,931.194C2107.418,926.965 2108.393,922.009 2108.393,916.327L2108.393,916.232C2108.393,910.486 2107.418,905.507 2105.469,901.293C2103.521,897.08 2100.749,893.824 2097.153,891.525C2093.558,889.227 2089.274,888.078 2084.301,888.078C2079.362,888.078 2075.095,889.227 2071.5,891.525C2067.904,893.824 2065.124,897.08 2063.158,901.293C2061.193,905.507 2060.21,910.486 2060.21,916.232L2060.21,916.327C2060.21,922.009 2061.167,926.965 2063.083,931.194C2064.998,935.424 2067.753,938.704 2071.348,941.034C2074.944,943.364 2079.261,944.529 2084.301,944.529Z" style="fill:white;fill-rule:nonzero;"/>
                <path d="M2156.104,950.849L2156.104,881.758L2183.874,881.758C2188.545,881.758 2192.619,882.612 2196.097,884.319C2199.574,886.027 2202.271,888.413 2204.186,891.478C2206.101,894.542 2207.059,898.149 2207.059,902.299L2207.059,902.394C2207.059,907.182 2205.765,911.332 2203.178,914.843C2200.591,918.354 2197.012,920.796 2192.442,922.169L2209.276,950.849L2198.642,950.849L2183.068,923.51L2165.176,923.51L2165.176,950.849L2156.104,950.849ZM2165.176,915.849L2183.068,915.849C2187.738,915.849 2191.342,914.708 2193.879,912.425C2196.416,910.143 2197.684,906.895 2197.684,902.682L2197.684,902.586C2197.684,898.468 2196.357,895.244 2193.702,892.914C2191.048,890.584 2187.369,889.419 2182.665,889.419L2165.176,889.419L2165.176,915.849Z" style="fill:white;fill-rule:nonzero;"/>
                <path d="M2292.199,950.849L2319.012,881.758L2325.967,881.758L2325.967,892.914L2323.095,892.914L2301.725,950.849L2292.199,950.849ZM2304.346,931.075L2307.168,923.749L2340.029,923.749L2342.852,931.075L2304.346,931.075ZM2345.271,950.849L2323.901,892.914L2323.901,881.758L2327.983,881.758L2354.796,950.849L2345.271,950.849Z" style="fill:white;fill-rule:nonzero;"/>
                <rect x="2390.26" y="881.758" width="9.072" height="69.091" style="fill:white;fill-rule:nonzero;"/>
                <path d="M2486.539,950.849L2513.352,881.758L2520.307,881.758L2520.307,892.914L2517.435,892.914L2496.065,950.849L2486.539,950.849ZM2498.686,931.075L2501.508,923.749L2534.369,923.749L2537.192,931.075L2498.686,931.075ZM2539.611,950.849L2518.241,892.914L2518.241,881.758L2522.323,881.758L2549.137,950.849L2539.611,950.849Z" style="fill:white;fill-rule:nonzero;"/>
                <path d="M2611.212,952.477C2606.172,952.477 2601.627,951.631 2597.578,949.94C2593.53,948.248 2590.069,945.822 2587.196,942.662C2584.323,939.502 2582.114,935.703 2580.568,931.266C2579.023,926.829 2578.25,921.85 2578.25,916.327L2578.25,916.232C2578.25,908.954 2579.611,902.61 2582.332,897.199C2585.054,891.789 2588.893,887.591 2593.849,884.607C2598.805,881.622 2604.592,880.13 2611.212,880.13C2616.588,880.13 2621.384,881.032 2625.601,882.835C2629.818,884.639 2633.296,887.168 2636.034,890.424C2638.772,893.68 2640.612,897.495 2641.553,901.868L2641.654,902.346L2632.481,902.346L2632.33,901.868C2630.851,897.399 2628.314,893.983 2624.719,891.621C2621.124,889.259 2616.621,888.078 2611.212,888.078C2606.407,888.078 2602.232,889.235 2598.687,891.549C2595.142,893.864 2592.396,897.127 2590.447,901.341C2588.498,905.554 2587.524,910.518 2587.524,916.232L2587.524,916.327C2587.524,920.669 2588.07,924.579 2589.162,928.058C2590.254,931.538 2591.833,934.498 2593.899,936.94C2595.966,939.382 2598.46,941.257 2601.384,942.566C2604.307,943.875 2607.6,944.529 2611.262,944.529C2615.597,944.529 2619.402,943.707 2622.678,942.063C2625.954,940.419 2628.499,938.129 2630.313,935.192C2632.128,932.256 2633.035,928.84 2633.035,924.946L2633.035,923.27L2612.623,923.27L2612.623,915.705L2642.107,915.705L2642.107,924.132C2642.107,928.377 2641.376,932.24 2639.915,935.719C2638.453,939.198 2636.362,942.191 2633.64,944.697C2630.918,947.202 2627.659,949.126 2623.862,950.466C2620.065,951.807 2615.849,952.477 2611.212,952.477Z" style="fill:white;fill-rule:nonzero;"/>
                <path d="M2680.847,950.849L2680.847,881.758L2725.905,881.758L2725.905,889.514L2689.919,889.514L2689.919,911.683L2724.04,911.683L2724.04,919.344L2689.919,919.344L2689.919,943.093L2725.905,943.093L2725.905,950.849L2680.847,950.849Z" style="fill:white;fill-rule:nonzero;"/>
                <path d="M2765.048,950.849L2765.048,881.758L2773.868,881.758L2815.549,938.544L2809.501,935.528L2814.138,935.528L2814.138,881.758L2823.109,881.758L2823.109,950.849L2814.289,950.849L2772.608,894.255L2778.656,897.271L2774.019,897.271L2774.019,950.849L2765.048,950.849Z" style="fill:white;fill-rule:nonzero;"/>
                <path d="M2883.269,950.849L2883.269,889.514L2859.833,889.514L2859.833,881.758L2915.778,881.758L2915.778,889.514L2892.341,889.514L2892.341,950.849L2883.269,950.849Z" style="fill:white;fill-rule:nonzero;"/>
                <path d="M2976.341,952.477C2971.032,952.477 2966.404,951.655 2962.455,950.011C2958.507,948.367 2955.383,946.101 2953.081,943.212C2950.779,940.324 2949.444,937.012 2949.074,933.277L2949.024,932.75L2958.096,932.75L2958.146,933.277C2958.381,935.575 2959.314,937.562 2960.943,939.238C2962.573,940.914 2964.757,942.215 2967.496,943.141C2970.234,944.066 2973.35,944.529 2976.845,944.529C2980.138,944.529 2983.069,944.026 2985.64,943.021C2988.21,942.015 2990.235,940.619 2991.713,938.831C2993.191,937.044 2993.931,934.985 2993.931,932.655L2993.931,932.607C2993.931,929.734 2992.822,927.316 2990.604,925.353C2988.386,923.39 2984.774,921.882 2979.768,920.828L2971.704,919.152C2964.413,917.62 2959.112,915.25 2955.803,912.042C2952.493,908.834 2950.838,904.724 2950.838,899.713L2950.838,899.665C2950.872,895.835 2951.972,892.451 2954.139,889.514C2956.307,886.578 2959.314,884.28 2963.161,882.62C2967.008,880.96 2971.435,880.13 2976.442,880.13C2981.28,880.13 2985.564,880.952 2989.294,882.596C2993.023,884.24 2995.989,886.45 2998.189,889.227C3000.39,892.004 3001.608,895.116 3001.843,898.564L3001.894,899.234L2992.822,899.234L2992.721,898.612C2992.385,896.569 2991.511,894.757 2990.1,893.177C2988.689,891.597 2986.807,890.344 2984.455,889.419C2982.103,888.493 2979.348,888.046 2976.19,888.078C2973.166,888.078 2970.444,888.525 2968.025,889.419C2965.605,890.312 2963.682,891.597 2962.254,893.273C2960.826,894.949 2960.112,897 2960.112,899.426L2960.112,899.474C2960.112,902.219 2961.187,904.533 2963.337,906.416C2965.488,908.3 2969.033,909.752 2973.972,910.773L2982.036,912.497C2987.11,913.55 2991.192,914.923 2994.283,916.615C2997.375,918.307 2999.634,920.373 3001.062,922.815C3002.49,925.257 3003.204,928.138 3003.204,931.458L3003.204,931.506C3003.204,935.815 3002.095,939.534 2999.878,942.662C2997.66,945.79 2994.535,948.208 2990.503,949.916C2986.471,951.623 2981.75,952.477 2976.341,952.477Z" style="fill:white;fill-rule:nonzero;"/>
            </g>
        </g>
    </g>
</svg>
