<?xml version="1.0" encoding="UTF-8" standalone="no"?>
<!DOCTYPE svg PUBLIC "-//W3C//DTD SVG 1.1//EN" "http://www.w3.org/Graphics/SVG/1.1/DTD/svg11.dtd">
<svg width="100%" height="100%" viewBox="0 0 2925 809" version="1.1" xmlns="http://www.w3.org/2000/svg" xmlns:xlink="http://www.w3.org/1999/xlink" xml:space="preserve" xmlns:serif="http://www.serif.com/" style="fill-rule:evenodd;clip-rule:evenodd;stroke-linejoin:round;stroke-miterlimit:2;">
    <g id="Artboard1" transform="matrix(1.005846,0,0,0.734787,-1245.237276,28.656676)">
        <rect x="1238" y="-39" width="2908" height="1101" style="fill:none;"/>
        <g transform="matrix(0.92717,0,0,1.270072,199.175114,-71.121013)">
            <g transform="matrix(6.903823,0,0,6.899075,-5033.543498,-12019.068494)">
                <g transform="matrix(0.9,0,0,0.95,103.322472,90.555753)">
                    <g transform="matrix(47.249575,0,0,47.249575,1309.298456,1811.115055)">
                    </g>
                    <text x="1033.225px" y="1811.115px" style="font-family:'SFPro-Regular', 'SF Pro';font-size:47.25px;fill:white;">U<tspan x="1080.491px 1127.987px 1153.059px 1195.502px 1234.763px 1275.338px " y="1811.115px 1811.115px 1811.115px 1811.115px 1811.115px 1811.115px ">NIPLEX</tspan></text>
                </g>
            </g>
            <g transform="matrix(3.755458,0,0,3.752876,-2982.631134,-7289.276996)">
                <g transform="matrix(3.197937,0,0,3.35062,-2096.207932,-3978.30648)">
                    <path d="M1048.112,1811.641C1055.629,1811.641 1060.239,1806.819 1060.239,1800.003L1060.239,1791.539C1060.239,1789.96 1059.367,1788.996 1057.934,1788.996C1056.48,1788.996 1055.608,1789.96 1055.608,1791.539L1055.608,1799.586C1055.608,1804.101 1052.888,1807.279 1048.112,1807.279C1043.337,1807.279 1040.637,1804.101 1040.637,1799.586L1040.637,1786.004C1040.637,1784.426 1039.745,1783.461 1038.312,1783.461C1036.858,1783.461 1035.986,1784.426 1035.986,1786.004L1035.986,1800.003C1035.986,1806.819 1040.596,1811.641 1048.112,1811.641Z" style="fill:rgb(4,251,255);fill-rule:nonzero;"/>
                </g>
                <g transform="matrix(-3.197937,-0,0,-3.35062,4638.386619,8056.016108)">
                    <path d="M1048.112,1811.641C1055.629,1811.641 1060.239,1806.819 1060.239,1800.003L1060.239,1791.539C1060.239,1789.96 1059.367,1788.996 1057.934,1788.996C1056.48,1788.996 1055.608,1789.96 1055.608,1791.539L1055.608,1799.586C1055.608,1804.101 1052.888,1807.279 1048.112,1807.279C1043.337,1807.279 1040.637,1804.101 1040.637,1799.586L1040.637,1786.004C1040.637,1784.426 1039.745,1783.461 1038.312,1783.461C1036.858,1783.461 1035.986,1784.426 1035.986,1786.004L1035.986,1800.003C1035.986,1806.819 1040.596,1811.641 1048.112,1811.641Z" style="fill:rgb(4,251,255);fill-rule:nonzero;"/>
                </g>
            </g>
        </g>
        <g transform="matrix(0.782578,0,0,1.071267,1290.227467,-156.209874)">
            <g transform="matrix(1,0,0,0.95,-0,47.542464)">
                <g transform="matrix(105.866785,0,0,105.866785,3073.054804,950.849274)">
                </g>
                <text x="591.451px" y="950.849px" style="font-family:'SFPro-Regular', 'SF Pro';font-size:105.867px;fill:white;">T<tspan x="683.96px 787.945px 876.422px 931.61px 1024.119px 1118.696px 1222.164px 1315.036px 1407.545px 1462.732px 1548.263px 1637.257px 1732.041px 1820.518px 1915.095px 1970.283px 2056.279px 2163.366px 2257.943px 2313.13px 2409.878px 2463.618px 2518.805px 2611.935px 2716.385px 2804.862px 2908.848px 3001.357px " y="950.849px 950.849px 950.849px 950.849px 950.849px 950.849px 950.849px 950.849px 950.849px 950.849px 950.849px 950.849px 950.849px 950.849px 950.849px 950.849px 950.849px 950.849px 950.849px 950.849px 950.849px 950.849px 950.849px 950.849px 950.849px 950.849px 950.849px 950.849px ">HE TRUST LAYER FOR AI AGENTS</tspan></text>
            </g>
        </g>
    </g>
</svg>
